<svg width="419.9" height="98.27039149962238" viewBox="0 0 401.6530248600024 94" class="css-1j8o68f"><defs id="SvgjsDefs1565"></defs><g id="SvgjsG1566" featurekey="symbolGroupContainer" transform="matrix(1,0,0,1,0,0)" fill="#3d84a8"><rect width="101" height="94" rx="8"></rect></g><g id="SvgjsG1567" featurekey="symbolFeature-0" transform="matrix(0.7551908584627697,0,0,0.7551908584627697,12.621030191100065,9.358724085625395)" fill="#ffffff"><path xmlns="http://www.w3.org/2000/svg" d="M47.495,62.192c-5.268-2.254-10.214-4.752-14.785-7.483c-1.702,1.702-4.004,2.764-6.545,2.764  c-0.526,0-1.033-0.075-1.537-0.162c-3.598,6.751-5.429,13.429-5.474,19.973c1.661,2.097,3.509,4.018,5.518,5.743  c7.979-2.768,16.039-7.675,23.873-14.618c-0.739-1.403-1.196-2.986-1.196-4.696C47.349,63.191,47.42,62.691,47.495,62.192z"></path><path xmlns="http://www.w3.org/2000/svg" d="M16.695,47.617c0-1.435,0.312-2.789,0.844-4.02c-2.16-1.965-4.168-3.995-5.998-6.09C10.395,41.459,9.771,45.651,9.771,50  c0,7.493,1.848,14.523,5.064,20.638c0.851-5.139,2.673-10.31,5.366-15.43C18.079,53.399,16.695,50.688,16.695,47.617z"></path><path xmlns="http://www.w3.org/2000/svg" d="M48.771,16.689c2.771,0,5.245,1.268,6.978,3.249c4.172-2.608,8.57-5.103,13.221-7.439C63.315,9.296,56.862,7.47,50.001,7.47  c-7.941,0-15.322,2.465-21.558,6.662c4.562,1.859,8.945,3.885,13.179,6.023C43.359,18.052,45.903,16.689,48.771,16.689z"></path><path xmlns="http://www.w3.org/2000/svg" d="M57.771,29.458c5.068,3.328,9.793,6.843,14.107,10.518c3.301-5.372,6.357-11.074,9.131-17.068  c-2.145-2.739-4.633-5.155-7.352-7.253c-5.566,2.684-10.807,5.576-15.686,8.642c0.162,0.726,0.27,1.472,0.27,2.248  C58.241,27.565,58.048,28.531,57.771,29.458z"></path><path xmlns="http://www.w3.org/2000/svg" d="M48.771,36.398c-1.918,0-3.7-0.605-5.193-1.631c-3.261,2.766-6.253,5.62-8.929,8.56c0.61,1.303,0.984,2.746,0.984,4.29  c0,1.158-0.228,2.255-0.582,3.288c4.347,2.588,9.021,4.989,14.048,7.134c1.717-2.522,4.526-4.184,7.718-4.184  c1.596,0,3.08,0.452,4.402,1.183c2.875-3.54,5.639-7.288,8.25-11.267c-4.232-3.625-8.889-7.101-13.904-10.39  C53.841,35.235,51.438,36.398,48.771,36.398z"></path><path xmlns="http://www.w3.org/2000/svg" d="M72.935,46.858c-2.637,3.978-5.414,7.741-8.311,11.292c1.047,1.584,1.664,3.498,1.664,5.562  c0,0.118-0.031,0.229-0.035,0.346c6.35,1.805,13.016,3.28,19.961,4.37c0.615-1.346,1.162-2.727,1.643-4.146  C83.94,58.279,78.933,52.418,72.935,46.858z"></path><path xmlns="http://www.w3.org/2000/svg" d="M56.817,73.564c-1.951,0-3.766-0.619-5.275-1.676c-7.334,6.49-14.89,11.322-22.45,14.396  c6.099,3.936,13.24,6.245,20.909,6.245c14.316,0,26.854-7.932,33.982-19.841c-6.555-1.096-12.859-2.541-18.898-4.271  C63.474,71.47,60.392,73.564,56.817,73.564z"></path><path xmlns="http://www.w3.org/2000/svg" d="M83.995,27.328c-2.65,5.503-5.533,10.761-8.623,15.738C80.8,48.054,85.509,53.283,89.39,58.66  c0.549-2.796,0.84-5.691,0.84-8.66C90.229,41.655,87.923,33.896,83.995,27.328z"></path><path xmlns="http://www.w3.org/2000/svg" d="M31.517,39.502c2.69-2.901,5.654-5.726,8.881-8.457c-0.676-1.356-1.095-2.872-1.095-4.501c0-0.808,0.119-1.579,0.296-2.33  c-4.906-2.458-10.047-4.745-15.4-6.829c-4.651,4.118-8.391,9.335-10.902,15.263c2.033,2.55,4.37,4.999,6.93,7.359  c1.63-1.381,3.679-2.243,5.939-2.243C28.151,37.764,29.992,38.409,31.517,39.502z"></path><circle xmlns="http://www.w3.org/2000/svg" cx="25.884" cy="47.311" r="4.675"></circle><circle xmlns="http://www.w3.org/2000/svg" cx="48.984" cy="26.41" r="4.675"></circle><circle xmlns="http://www.w3.org/2000/svg" cx="56.547" cy="63.673" r="4.675"></circle></g><g id="SvgjsG1568" featurekey="nameLeftFeature-0" transform="matrix(1.1419963476334865,0,0,1.1419963476334865,118.71600757700617,18.814253507968623)" fill="#3d84a8"><path d="M6.72 11.16 c0 0.56 0.12 19.52 0.12 21.84 c0 0.52 -0.12 1.04 -0.4 1.48 c-0.2 0.4 -0.6 0.88 -1.12 0.88 c-0.56 0 -1.16 -0.2 -1.72 -0.4 c-0.28 -0.16 -0.96 -0.64 -1.04 0 c-0.12 1.04 -0.44 3.68 -0.56 4.48 c0 0.2 0.52 0.28 0.6 0.32 c1.04 0.2 2.16 0.28 3.2 0.28 c1.08 0.04 2.16 -0.12 3.12 -0.68 c1.64 -0.96 2.92 -2.8 2.92 -4.8 l0.08 -22.24 c0 -0.24 0.08 -1.52 -0.08 -1.92 c-0.24 -0.64 -1.12 -0.48 -1.64 -0.48 c-0.88 0 -1.76 -0.08 -2.6 0 c-0.8 0.08 -0.88 0.32 -0.88 1.24 z M15.92 16.56 c0 4.04 0.04 8.12 0.12 12.12 c0.04 2.44 0 5.2 1.16 7.44 c1.48 2.88 4.76 4.16 7.92 3.96 c2.16 -0.16 4.16 -0.72 5.72 -2.32 c2.64 -2.84 2.12 -7.28 2.16 -10.92 c0.08 -5.24 0.2 -10.12 0.2 -15.4 c0 -0.88 -0.28 -1.36 -1.16 -1.4 c-1.08 -0.04 -2.16 0 -3.24 0.08 c-0.44 0 -0.8 0.4 -0.8 0.88 c0.04 3.84 0.12 7.72 0.08 11.6 c-0.04 3.32 0.4 7 -0.84 10.16 c-0.48 1.16 -1.56 2.04 -2.84 2.04 c-3.2 -0.08 -3.08 -3.88 -3.2 -6.12 c-0.24 -4.88 0.12 -9.88 0.24 -14.76 c0 -0.92 0 -1.84 0.04 -2.76 c0.04 -0.48 0.12 -1.08 -0.52 -1.12 l-0.72 0 c-1 0.08 -2 -0.04 -3 0 c-0.96 0.08 -1.28 0.36 -1.28 1.32 c0 1.72 -0.04 3.48 -0.04 5.2 z M45.36 9.8 c-0.76 0.04 -1.52 0.16 -2.28 0.4 c-1.64 0.56 -3.12 1.68 -4.12 3.12 c-0.88 1.32 -1.24 2.88 -1.36 4.44 c-0.08 1.2 0.04 2.44 0.6 3.52 c0.6 1.16 1.64 2.16 2.52 3.12 c0.8 0.84 1.6 1.68 2.48 2.44 c0.8 0.76 1.72 1.36 2.52 2.16 c1.16 1.16 1.6 3.8 0.76 5.24 c-1 1.6 -3.36 1.84 -4.92 1.32 c-0.8 -0.28 -1.52 -0.88 -2.2 -1.36 c-0.4 -0.28 -0.88 -0.4 -1.16 0.08 c-0.16 0.24 -0.24 0.52 -0.32 0.76 c-0.28 1 -0.64 1.92 -0.68 3 c-0.04 1.24 2.32 1.6 3.2 1.8 c3.92 0.92 8.64 0.2 10.68 -3.68 c0.4 -0.8 0.68 -1.64 0.84 -2.52 c0.04 -0.32 0.08 -0.6 0.08 -0.92 c0.16 -2.56 -0.88 -4.72 -2.44 -6.64 c-1.68 -2.08 -3.8 -3.52 -5.76 -5.32 c-1.2 -1.12 -1.64 -2.88 -1.28 -4.48 c0.36 -1.72 2.32 -2.16 3.8 -1.72 c0.44 0.12 0.8 0.32 1.2 0.56 c0.24 0.12 0.48 0.28 0.8 0.28 c0.56 0.04 0.64 -0.4 0.76 -0.84 c0.28 -1 0.76 -1.8 0.96 -2.76 c0.2 -1.08 -0.68 -1.28 -1.56 -1.56 c-1.04 -0.28 -2.04 -0.48 -3.12 -0.44 z M61.08 35.64 c0.04 1.24 0.04 2.48 0.08 3.72 c0 0.56 0.04 0.64 0.6 0.64 l3.6 0 c0.76 0 0.6 -1.28 0.56 -1.96 l0.12 -22.4 c0 -0.6 0.2 -0.8 1 -0.8 l3.52 0 c0.84 0 0.64 -1.44 0.64 -2.44 c0 -0.88 0.32 -2.4 -0.64 -2.4 c-0.68 0 -7.2 0 -9.88 0.04 c-1.32 0 -2.4 -0.04 -3.72 -0.04 c-1 0 -0.96 0.8 -0.96 2.56 c0 1.12 -0.04 2.24 0.92 2.24 c0.56 0 2.84 0 3.48 0.04 c0.4 0 0.68 0.12 0.76 0.56 c0 0.12 0.04 0.24 0.04 0.36 c0 2.88 -0.2 16.28 -0.12 19.88 z"></path></g><g id="SvgjsG1569" featurekey="inlineSymbolFeature-0" transform="matrix(0.4340135786035488,0,0,0.4340135786035488,200.6598642139645,25.65986421396451)" fill="#3d84a8"><path xmlns="http://www.w3.org/2000/svg" d="M50,10L10,90h80L50,10z M50,24.909L72.546,70H42.36l3.333-6.667h16.064L50,39.814L31.575,76.667h44.304l3.333,6.666H20.788  L50,24.909z"></path></g><g id="SvgjsG1570" featurekey="nameRightFeature-0" transform="matrix(1.1374354373704556,0,0,1.1374354373704556,231.34342778746486,18.92734084767577)" fill="#3d84a8"><path d="M27.8 14.719999999999999 c0.04 -1.32 0 -2.4 0 -3.68 c0 -1.48 -2.68 -1.32 -3.64 -1.28 c-4.28 0.28 -8.36 3 -10.32 6.72 c-0.56 1.08 -0.96 2.2 -1.24 3.36 c-0.68 2.72 -0.72 5.6 -0.4 8.36 c0.28 2.6 0.96 5.2 2.56 7.28 c2.76 3.64 7.84 4.92 12.2 4.24 c0.2 -0.04 0.4 -0.08 0.56 -0.2 c0.12 -0.08 0.24 -0.24 0.24 -0.4 l0.12 -2.28 c0.04 -0.72 0 -0.68 0 -1.4 c0 -0.96 -2 -0.24 -3.24 -0.24 c-1.2 0 -2.48 -0.04 -3.56 -0.6 c-1.92 -1.08 -3 -3.24 -3.6 -5.28 c-0.68 -2.2 -0.84 -4.56 -0.44 -6.8 c0.48 -2.92 1.88 -6.28 4.96 -7.28 c1.76 -0.6 3.64 -0.4 5.4 -0.2 c0.24 0.04 0.4 -0.12 0.4 -0.32 z M52.959999999999994 17.36 c0.84 2.48 1.04 5.16 1.04 7.8 c0 2.2 -0.4 4.32 -0.96 6.44 c-0.72 2.52 -1.92 4.8 -4.08 6.28 c-1.6 1.16 -3.28 1.92 -5.24 2.12 c-0.28 0 -0.52 0.04 -0.8 0.04 c-0.24 0 -0.48 -0.04 -0.76 -0.04 c-1.96 -0.2 -3.64 -0.96 -5.28 -2.12 c-2.12 -1.48 -3.36 -3.76 -4.04 -6.28 c-0.6 -2.12 -0.96 -4.24 -0.96 -6.44 c0 -2.64 0.2 -5.32 1.04 -7.8 c1.48 -4.28 5.56 -7.32 10 -7.4 c4.44 0.08 8.52 3.12 10.04 7.4 z M49.08 28.08 c0.4 -2.44 0.24 -4.92 -0.24 -7.36 c-0.48 -2.2 -1.44 -4.36 -3.28 -5.68 c-0.32 -0.24 -0.68 -0.44 -1.04 -0.56 c-0.52 -0.24 -1.08 -0.32 -1.6 -0.32 s-1.04 0.08 -1.56 0.32 c-0.4 0.12 -0.72 0.32 -1.04 0.56 c-1.88 1.32 -2.84 3.48 -3.28 5.68 c-0.48 2.44 -0.64 4.92 -0.24 7.36 c0.4 2.2 1.2 5.16 3.28 6.28 c0.88 0.48 1.84 0.8 2.84 0.84 c1 -0.04 2 -0.36 2.88 -0.84 c2.08 -1.12 2.88 -4.08 3.28 -6.28 z M75.03999999999999 10.920000000000002 c0.12 0.56 0.04 27.2 0.04 27.88 c0 1.2 -0.44 1.16 -1.24 1.16 c-1.2 0 -2.88 0.2 -3.24 -0.2 c-0.32 -0.28 -6.24 -14.56 -7.08 -16.36 c-0.08 -0.16 -0.28 -0.56 -0.44 -0.48 c-0.2 0.08 -0.12 0.36 -0.12 0.52 c-0.04 1.4 0.2 13.48 0.2 15.4 c0 0.96 -0.04 1.12 -0.84 1.12 l-2 0 c-0.52 0 -1.16 -0.04 -1.68 0.04 c-0.4 0 -0.6 -0.12 -0.64 -0.52 l0 -3.16 c0.08 -3.36 0 -23.28 0 -24.76 c0 -1.28 0.36 -1.52 1.64 -1.52 c0.88 -0.04 1.76 -0.04 2.64 -0.04 c0.28 0 0.44 0.04 0.6 0.4 c1.08 2.52 5.68 14.08 6.4 15.48 c0.12 0.28 0.56 1.4 0.8 1.52 l0.04 0 c0.16 -0.16 0.12 -0.96 0.12 -1.2 c0 -0.6 -0.32 -14.64 -0.32 -14.92 c0 -0.4 -0.12 -0.76 0.08 -1.04 c0.12 -0.16 0.64 -0.2 0.84 -0.24 c1.12 -0.08 2.44 0.04 3.56 0 c0.56 0 0.52 0.4 0.64 0.92 z M94.92 14.719999999999999 c0.04 -1.32 0 -2.4 0 -3.68 c0 -1.48 -2.68 -1.32 -3.64 -1.28 c-4.28 0.28 -8.36 3 -10.32 6.72 c-0.56 1.08 -0.96 2.2 -1.24 3.36 c-0.68 2.72 -0.72 5.6 -0.4 8.36 c0.28 2.6 0.96 5.2 2.56 7.28 c2.76 3.64 7.84 4.92 12.2 4.24 c0.2 -0.04 0.4 -0.08 0.56 -0.2 c0.12 -0.08 0.24 -0.24 0.24 -0.4 l0.12 -2.28 c0.04 -0.72 0 -0.68 0 -1.4 c0 -0.96 -2 -0.24 -3.24 -0.24 c-1.2 0 -2.48 -0.04 -3.56 -0.6 c-1.92 -1.08 -3 -3.24 -3.6 -5.28 c-0.68 -2.2 -0.84 -4.56 -0.44 -6.8 c0.48 -2.92 1.88 -6.28 4.96 -7.28 c1.76 -0.6 3.64 -0.4 5.4 -0.2 c0.24 0.04 0.4 -0.12 0.4 -0.32 z M99.04 31.8 l-0.04 0 c0 1 -0.04 2.04 0 3.08 c0.04 1.28 0.12 2.56 0.2 3.84 c0 0.44 0.12 0.56 0.52 0.64 c0.84 0.2 1.64 0.24 2.48 0.24 c2.16 -0.08 4.32 0.08 6.48 0 c0.88 -0.04 1.28 0.04 2.16 -0.12 c0.8 -0.16 1.08 -0.6 1.08 -1.8 c-0.08 -0.76 -0.04 -1.08 -0.04 -2 c0 -1.32 -0.92 -1.76 -1.72 -1.72 c-0.56 0.04 -3.24 -0.04 -4.32 -0.04 c-1.8 0.04 -1.52 0.28 -1.52 -1.6 c0 -1.52 0.04 -3.48 0.04 -5.04 c0 -0.84 0.08 -1.12 0.88 -1.12 l5 0 c0.8 0.12 1.36 -0.44 1.36 -1.28 s0.08 -0.88 0.08 -1.72 l-0.12 -1.2 c-0.08 -0.68 -0.32 -0.92 -1 -0.92 c-0.44 0 -0.88 0.04 -1.32 0.08 c-1.72 0.12 -2.52 -0.12 -4.2 0 c-0.56 0 -0.64 -0.08 -0.68 -0.6 c-0.16 -1.56 0 -3.28 0.16 -4.84 c0.04 -0.64 0.2 -0.76 0.8 -0.8 l5.64 -0.04 c0.76 -0.08 1 -0.04 0.96 -0.8 c-0.08 -1.16 0.04 -2.36 -0.08 -3.52 c-0.08 -0.64 -0.28 -0.76 -1 -0.76 c-1.2 0.04 -1.48 0.04 -2.68 0.12 c-1.2 0.04 -6 0.04 -7.16 0.04 c-1.68 0 -1.8 -0.12 -1.84 1.92 c-0.08 1.6 -0.04 3.24 -0.04 4.88 c0 2.8 -0.16 12.84 -0.08 15.08 z M115.96000000000001 15.239999999999998 c0.04 2.36 0.04 22.4 0.04 24.04 c0 0.6 0.08 0.72 0.68 0.72 c1.36 0 1.36 0.04 2.72 0 c0.28 0 0.76 0 1 -0.12 c0.28 -0.12 0.12 -9.56 0.12 -10.08 c0 -0.56 1.12 -0.44 1.44 -0.44 c6.68 0 8.52 -4.8 8.52 -8.88 c0 -3.68 -0.72 -10.48 -9.04 -10.48 c-1.44 0 -2.92 0.04 -4.32 0.04 c-0.32 0 -0.72 -0.04 -1 0.16 c-0.32 0.24 -0.2 3.8 -0.16 5.04 z M120.56 23.48 c0 -0.88 -0.04 -6.12 0 -7.72 c0 -0.24 -0.04 -0.52 0 -0.8 c0.12 -0.44 0.64 -0.44 1.04 -0.4 c2.32 0.16 3.64 2.2 3.84 4.36 c0.16 1.56 -0.04 3.88 -1.16 5.12 c-0.8 0.84 -1.84 1.36 -3.2 1.36 c-0.28 0 -0.56 -0.32 -0.56 -0.6 c0 -0.44 0 -0.88 0.04 -1.32 z M139.56 35.64 c0.04 1.24 0.04 2.48 0.08 3.72 c0 0.56 0.04 0.64 0.6 0.64 l3.6 0 c0.76 0 0.6 -1.28 0.56 -1.96 l0.12 -22.4 c0 -0.6 0.2 -0.8 1 -0.8 l3.52 0 c0.84 0 0.64 -1.44 0.64 -2.44 c0 -0.88 0.32 -2.4 -0.64 -2.4 c-0.68 0 -7.2 0 -9.88 0.04 c-1.32 0 -2.4 -0.04 -3.72 -0.04 c-1 0 -0.96 0.8 -0.96 2.56 c0 1.12 -0.04 2.24 0.92 2.24 c0.56 0 2.84 0 3.48 0.04 c0.4 0 0.68 0.12 0.76 0.56 c0 0.12 0.04 0.24 0.04 0.36 c0 2.88 -0.2 16.28 -0.12 19.88 z"></path></g></svg>